<?xml version="1.0" encoding="UTF-8"?><svg id="Layer_1" xmlns="http://www.w3.org/2000/svg" viewBox="0 0 1118.9991 817.4201"><defs><style>.cls-1{fill-rule:evenodd;}</style></defs><path class="cls-1" d="m764.9991.033c1.0055.0877,2.3554-.4682,1.9998,1.0001-1.7539-.6308-.9712-.193-1.9998-1.0001Z"/><path class="cls-1" d="m953.9991,74.033c14.6395,1.2115,20.0529-5.185,32-8,.4084,2.2676-25.4331,35.2764-25.9982,37.998-.0018,10.3343-.0018,20.6697-.0018,31.002-13.9339,34.6242,5.3889,23.2976,2.0025,46.0001-19.3574,24.032-17.3415,75.9809-7.0044,105.9996-8.2306,19.4794,1.8899,32.5577.0051,50.0011-15.3326,34.413-49.1599,45.3122-75.0035,18.9959-9.445-17.9664-26.0494-11.0395-22.9953-33.9982-9.2165-4.7386-2.386-16.5235-3.0057-24.9986-18.627-28.685-24.6265-48.5461-29.9951,1.002-25.642,56.5192,27.8793,88.8004,3.9922,151.9988-11.107,29.3859.547,64.4385,19.0054,93.9988,19.7493,5.0624,33.3361,25.2859,51.9988,35.0006,9.2248,5.2223,59.3516,26.1993,60.9995,36.0002,14.9278,3.0448,14.0698,19.1212,20.9991,30.0014,21.0436,26.7366,54.5258,39.8521,77.001,64.9985,24.3143,10.5675,19.4833,10.7259,30.9989,34.0016,7.6998,11.1797,29.2952,12.3104,30.0015,29.9983-3.7941,18.0166-40.9818,29.1042-54.9992,9.9976-20.4373-11.3721,1.932-19.6778-16.0334-28.7986-3.6022-1.8288-6.7588-4.5778-8.6384-8.1538-4.3042-8.189-23.8999-8.8271-19.3286-22.0458-1.697-9.4029-9.3308-12.8867-17.0031-16.9979-13.4855-23.6453-28.7227-15.1793-44.0356-39.0321-3.0151-6.2564-16.415-12.0638-22.9617-15.9693-22.3646-21.6516-50.4062-36.8344-81-43.9998-22.7075-9.1073-53.9526-31.089-44.9986,14.001,15.3874,42.5097,18.1079,90.2162,39.0006,129.9981,3.0342,15.8381,17.7716,32.9033,30.9983,41.0013,19.92,3.0718,31.4766,21.251,14.9988,21.0033-1.3733-.3619-31.1541,2.3833-49.9346,2.3285-2.4245.3459-4.7801-.9694-5.7361-3.2241-17.6528-41.6338-42.3215-111.9809-48.3284-125.1088-21.3055-12.9132-17.406-42.7921-24.6274-64.7908-4.2613-13.1756-8.4281-22.3334-13.3727-34.2086-2.3125-16.961-30.6945-53.7075-42-55-29.4289-.2224-73.8913.6783-101.0001,7.997-188.6133,52.8427-288.3884-143.6592-320.9899,32.0163-3.6199,7.9866-12.1137,12.4034-17.0099,18.9867-17.7197,33.8149-33.6765,33.3337-26.9944,76.001,19.6315,47.2291,50.6819,84.5263,77.995,124.9985-52.2353,27.9821-46.0512-17.9565-74.998-52.0029-39.0106-67.994-47.4704-89.8555-64.0348-5.0456-1.2683,6.4936-3.5352,11.926-6.3789,18.5153-3.4065,7.8934-2.6824,15.9803-12.0007,20.9995-13.577.5689-40.3778-3.1628-22.5895-24.4696,8.2249-9.8517,24.1744-65.4353,24.9986-85.9973.4315-10.766-1.6982-22.4713,11.0026-35.9989,5.6697-2.7737,25.8057-76.7267,24-88-10.4794-65.4235-73.868-129.8184-57-199-20.7728,26.4667-26.2128,74.758-27.8481,111.8773-5.6078,18.7556-4.6515,65.7628-3.9484,80.2815-2.5852,2.841-5.7154,20.0218-7.2032,26.8412-5.7798-6.5216,4.9925-28.5781-1.9965-36.0005-.4048,8.257-1.8608,4.1282-4.0037,8.0005-.4398.2478,2.1659,19.4251.0686,18.1956-3.2546-6.4659-2.7796-41.1261-6.0682-15.1973-1.3813-2.3254-6.9687-14.7877-9.0007-15.9982-4.0804,32.168-5.7298-21.7444-11.9998-25.0001-.5247,14.2817-.9932,42.2731-15,32,13.9716,3.2854,7.9927-38.2401,4.9995-19.0019-3.1975-6.4918-8.9995-44.9981-8.9995-44.9981-.3963,4.8042-1.4281,13.8013-4,17-9.0102-11.9214,3.9608-36.0296-2-48-2.4484,4.3063-21.6236,18.7126-31,22,4-4.135,12.1764-11.4969,15-16-11.8662,3.341-3.6599,9.6226-32.9989,10.9999-.1096-.5308,42.6043-32.598,45.9989-43.9999-1.0836.9087-9.4187,7.2822-17,9,.5346-.5799,18-19.2392,19-23-18.5938,7.2433-32.5388,28.1529-12.0008-4.0021-5.2464,1.3308-20.3647,6.9753-14.9992,3.0021,16.6856-12.3558,52.0962-65.6474,56.0014-75.9997,6.7042-23.5646,1.778-51.3055,21.9986-62.0003,20.1693-6.506,40.7627,4.572,62.0002,3.9949,51.4029,12.8568,96.3356-24.1477,149.0006-22.9875,63.5312-19.9383,154.8036,43.422,207.9992,22.9926-3.6377-.1875-2.8094-2.7517-4-3,5.0371,1.0507,9.7863-.9077,12-5-5.3969.2405-7.5271,1.0371-10-1,6.2652-.9205,34.291-19.706,15.0007-16.9985,6.3407-3.5389,14.6245-14.8807,18.9993-18.0015,5.3158-3.722,13.0696-13.159,16.9987-11.0014.102-1.6664-1.0766-.9886-.9987-2.9986.0537-1.3865,2.6798.1416,5.0005-1.999,3.0068-6.138,9.5195-14.9581,12.9995-21.001,2.3863-5.4805,6.3966-6.4533,1-13,3.5423-.3438,4.6089-.4353,6-3-2.7842-.8763,1.7454-3.9983,2-6,1.5458,1.1328.8426,1.0846,3,2,.4228-3.2406-1.1828-1.386-2.0001-4,4.3185.7023,12.5809-21.3669,16.0001-23-1.5414.7362,31.8191-19.5265,31.9971-27.0018-5.9653-2.008-16.8115,9.0729-12.9967-2.9985-11.5568-.8572-27.3996-3.0681-40.0007,3.997,8.2114-8.7513-5.9997-6.9967-5.9997-6.9967-40.3837-6.7729-15.024-9.0262-32-19,8.2385,3.2086,11.6459,3.1047,20.0004,1.9983,2.4345,6.2335,13.5176-2.5179,18.9996-3.9983-2.0538-.3826-4.6079-.9489-6-2,8.8353.5113,30.1936,3.3729,31-3,11.0395-11.7756-42.4423-16.837-52-25,9.9022-.9498,17.4343,5.4211,23.0142,3.0079-15.2372-5.7166,4.2853-3.1142,10.9851-4.0075.1268-2.5649-1.794-4.4164-3.9993-5.0004,2.3275-.1953,2.8257-.1927,4-1-5.6105-.5087-15.199-2.9013-19-6,6.0916.1162,16.8928-.2013,21-3-4.7494.1688-8.5336.0024-11-2,3.9185-.9262,10.7703.3328,16.0001-1.999,1.9957-2.6601-.8056-2.6403,4.9557-2.9983.4956-1.6763-1.4931-1.1069-1.9559-2.0027,2.7196.007,4.5975-.039,6-1-7.3459-.737-32.9293,1.2132-38-2,26.8726-4.1751,55.9519,1.3826,82.9998,2.0035,10.7985.3026,22.867,8.6958,34.0003,4.9939.9822.2349,1.8731,2.6345,3.9999,2.0027,4.8877-11.3307,28.6341.5988,37-6-4.3024-.4886-11.8611-2.6107-15-5,2.6353-1.695,12.7863.9542,14.9747-2.0081-14.9801-6.3978,11.5469-2.2042,19.0761-5.0021.0048-3.4306-16.3565,1.1823-13.5778-5.0418,23.0249-2.5471,19.6314-2.3357,41.527,4.052,1.2113-7.1474,4.5885,2.2198,9-3,1.5011.566,1.3184,2.6878,2,3,5.873-2.9572,9.825,2.8897,14,6.001,12.2234,1.9351,20.642,8.8593,32.9984,13.0034.0812-.9192-.0518-1.1379-.9988-1.0043-1.9228-.7755,2.0004-1.0002,2.0004-1.0002,22.742,6.7766,48.574-8.3189,65.9978,17.0062,9.8305,22.7054,26.269-10.2607,49.0023,31.9938Z"/><path class="cls-1" d="m612.9991,22.033c1.0211.8042.274.3549,2,1-1.0211-.8042-.274-.3549-2-1Z"/><path class="cls-1" d="m719.9991,23.033c1.7375,1.0766,2.2708,1.0352,4,0h-4Z"/><path class="cls-1" d="m600.9991,30.033c1.7197.881,1.278.8888,3,0h-3Z"/><path class="cls-1" d="m597.9991,32.033c1.0211.8042.274.3549,2,1-1.0211-.8042-.274-.3549-2-1Z"/><path class="cls-1" d="m598.9991,35.033c1.0211.8042.274.3549,2,1-1.0211-.8042-.274-.3549-2-1Z"/><path class="cls-1" d="m603.9991,36.033c.7974,1.4063,5.9159,3.606,7.0007,1.001-2.4739-.4834-3.6848-.8633-7.0007-1.001Z"/><path class="cls-1" d="m571.9991,85.0329c1.7197.881,1.278.8888,3,0h-3Z"/><path class="cls-1" d="m138.9991,356.0329c.8042,1.0211.3549.274,1,2-.3333,0-1-1.3334-1-2Z"/><path class="cls-1" d="m46.9991,382.0329c1.7197.881,1.278.8888,3,0h-3Z"/><path class="cls-1" d="m42.9991,389.0329c-1.6272,2.4743-5.1381,3.5664-2,5,2.1494-.9227,7.092-4.8998,2-5Z"/><path class="cls-1" d="m12.9991,392.0329c1.0055.0877,2.3554-.4682,1.9998,1.0001-1.7539-.6308-.9712-.193-1.9998-1.0001Z"/><path class="cls-1" d="m16.9991,392.0329c2.5117.4553,5.0028-.099,5.0004,1.9996-4.1318.6581-9.0069,2.2568-5.0004-1.9996Z"/><path class="cls-1" d="m46.9991,397.0329c-.9253,1.5114-3.7914,9.3487-1.9992,6.0007,2.35-.378,3.1942-4.0322,1.9992-6.0007Z"/><path class="cls-1" d="m33.9991,398.0329c1.0211.8042.274.3549,2,1-1.0211-.8042-.274-.3549-2-1Z"/><path class="cls-1" d="m29.9991,405.0329h2c-1.2219,4.25-4.6177,5.3877-2,0Z"/><path class="cls-1" d="m27.9991,409.0329c1.7954,1.7693-3.5047,7.2844-4,10-3.8166-1.6412,3.2695-6.9502,4-10Z"/><path class="cls-1" d="m21.9991,419.0329c1.2429,1.5669.6419.5101,0,2-3.6008,7.4642-3.6561,2.0299,0-2Z"/><path class="cls-1" d="m58.9991,492.0329c1.0766,1.7375,1.0352,2.2708,0,4v-4Z"/><path class="cls-1" d="m101.9991,499.0329c.2938,2.329.4514,2.477,1,4,2.511.1074.253-3.2129-1-4Z"/><path class="cls-1" d="m112.9991,521.0329c.8042,1.0211.3549.274,1,2-1.4683.3553-.9123-.9947-1-2Z"/><path class="cls-1" d="m100.9991,522.0329c.0878,1.0053-.4683,2.3555,1.0001,1.9998-.0879-1.0051.4681-2.3553-1.0001-1.9998Z"/><path class="cls-1" d="m96.9991,540.0329c.8042,1.0211.3549.274,1,2-1.4683.3553-.9123-.9947-1-2Z"/><path class="cls-1" d="m101.9991,553.0329c1.0729.6654,2.9578,3.0122,1.0003,3.0003-.7213,3.1502-1.3309-1.6242-1.0003-3.0003Z"/><path class="cls-1" d="m104.9991,563.0329c.7517,1.0729.6013.9456,1,3-1.7448.4181-.7653-1.8801-1-3Z"/></svg>